<?xml version="1.0" encoding="UTF-8"?>
<svg version="1.1" xmlns="http://www.w3.org/2000/svg" width="24" height="24">
<path d="M0 0 C1.17369141 0.10054688 1.17369141 0.10054688 2.37109375 0.203125 C5.10733867 0.88596687 6.02615128 1.36719164 7.5625 3.75 C7.85546875 7.10546875 7.85546875 7.10546875 7.75 10.9375 C7.72292969 12.20980469 7.69585937 13.48210938 7.66796875 14.79296875 C7.63316406 15.76878906 7.59835938 16.74460937 7.5625 17.75 C6.18670173 15.08788628 5.19186439 12.68703384 4.5625 9.75 C3.9025 10.41 3.2425 11.07 2.5625 11.75 C1.9025 9.77 1.2425 7.79 0.5625 5.75 C0.2325 6.41 -0.0975 7.07 -0.4375 7.75 C-2.0875 7.75 -3.7375 7.75 -5.4375 7.75 C-5.4375 6.43 -5.4375 5.11 -5.4375 3.75 C-4.1175 3.75 -2.7975 3.75 -1.4375 3.75 C-2.0975 3.09 -2.7575 2.43 -3.4375 1.75 C-4.7575 2.74 -6.0775 3.73 -7.4375 4.75 C-7.0625 2.8125 -7.0625 2.8125 -6.4375 0.75 C-3.98972161 -0.4738892 -2.70359459 -0.266364 0 0 Z M1.5625 1.75 C2.5625 3.75 2.5625 3.75 2.5625 3.75 Z M-4.4375 4.75 C-4.1075 5.41 -3.7775 6.07 -3.4375 6.75 C-2.7775 6.75 -2.1175 6.75 -1.4375 6.75 C-1.4375 6.09 -1.4375 5.43 -1.4375 4.75 C-2.4275 4.75 -3.4175 4.75 -4.4375 4.75 Z M4.5625 4.75 C5.5625 6.75 5.5625 6.75 5.5625 6.75 Z M5.5625 6.75 C6.5625 8.75 6.5625 8.75 6.5625 8.75 Z " fill="#000000" transform="translate(13.4375,1.25)"/>
<path d="M0 0 C1.37432457 3.81756824 0.67975039 7.07255329 0 11 C2.91517292 9.92598892 4.77810176 9.22189824 7 7 C6.6875 8.875 6.6875 8.875 6 11 C5.01 11.66 4.02 12.32 3 13 C6.50147041 14.1671568 9.32670036 14.13357453 13 14 C13.66 13.67 14.32 13.34 15 13 C14.67 13.99 14.34 14.98 14 16 C3.66519824 16.40528634 3.66519824 16.40528634 0 14 C-0.8125 11.375 -0.8125 11.375 -1 9 C-1.99 8.67 -2.98 8.34 -4 8 C-4 7.01 -4 6.02 -4 5 C-3.01 5 -2.02 5 -1 5 C-0.67 3.35 -0.34 1.7 0 0 Z M-3 6 C-2.34 6.66 -1.68 7.32 -1 8 C-1 7.34 -1 6.68 -1 6 C-1.66 6 -2.32 6 -3 6 Z " fill="#000000" transform="translate(5,6)"/>
</svg>
